<?xml version="1.0" standalone="no"?>
<!DOCTYPE svg PUBLIC "-//W3C//DTD SVG 20010904//EN"
 "http://www.w3.org/TR/2001/REC-SVG-20010904/DTD/svg10.dtd">
<svg version="1.0" xmlns="http://www.w3.org/2000/svg"
 width="1018.000000pt" height="311.000000pt" viewBox="0 0 1018.000000 311.000000"
 preserveAspectRatio="xMidYMid meet">

<g transform="translate(0.000000,311.000000) scale(0.100000,-0.100000)"
fill="#000000" stroke="none">
<path d="M0 1555 l0 -1556 150 2 c83 1 150 6 150 11 0 4 -7 8 -15 8 -16 0 -20
16 -6 24 5 3 11 -1 15 -9 4 -10 20 -15 51 -15 25 0 45 -4 45 -10 0 -6 35 -10
85 -10 78 0 85 2 85 20 0 11 7 20 15 20 8 0 15 -9 15 -20 0 -19 11 -19 780
-19 500 0 779 3 775 9 -3 6 -2 10 4 10 5 0 13 -5 16 -10 3 -6 26 -10 51 -10
41 0 44 2 44 26 0 16 5 24 12 21 7 -2 13 -14 12 -26 l-1 -22 401 3 c338 3 401
5 401 17 0 8 6 16 13 19 7 2 12 -5 12 -17 0 -21 3 -21 291 -21 255 0 290 2
285 15 -4 10 1 15 15 15 15 0 19 -5 15 -15 -4 -12 4 -15 42 -15 l47 0 -3 44
c-3 31 0 45 11 49 12 5 15 -4 14 -44 -2 -48 -1 -49 28 -49 30 0 30 1 30 52 0
37 4 52 13 51 6 -2 12 2 12 7 0 6 7 10 15 10 21 0 19 -17 -3 -22 -16 -5 -17
-11 -13 -85 1 -10 82 -13 372 -13 293 0 369 3 363 13 -6 9 -4 9 7 0 16 -15 33
-17 24 -3 -3 6 6 5 21 -2 22 -10 28 -10 32 0 2 6 10 12 18 12 9 0 13 -4 10 -9
-4 -6 109 -9 279 -10 173 0 285 4 285 10 0 5 7 9 16 9 8 0 12 -4 9 -10 -4 -6
288 -9 814 -10 755 0 820 1 814 16 -4 12 -2 15 8 12 8 -3 13 -11 11 -17 -3
-15 31 -14 47 1 11 10 14 10 18 1 6 -16 85 -17 100 -2 8 8 13 8 17 0 11 -17
490 -15 480 2 -6 9 -4 9 7 -1 19 -18 575 -18 582 1 4 9 8 9 14 1 8 -12 44 -12
81 0 11 4 23 3 26 -3 4 -5 169 -9 410 -9 l404 -1 6 22 c5 21 21 16 21 -6 0
-18 256 -22 266 -5 7 10 11 10 21 0 9 -9 94 -12 350 -12 l338 0 0 1555 0 1555
-5090 0 -5090 0 0 -1555z m4957 803 c-3 -8 -6 -5 -6 6 -1 11 2 17 5 13 3 -3 4
-12 1 -19z m3 -118 c0 -5 -5 -10 -11 -10 -5 0 -7 5 -4 10 3 6 8 10 11 10 2 0
4 -4 4 -10z m-127 -86 c-26 -20 -36 -17 -15 4 9 11 21 17 25 14 5 -2 0 -10
-10 -18z m313 -12 c-4 -3 -14 2 -24 12 -16 18 -16 18 6 6 13 -6 21 -14 18 -18z
m-181 -142 c3 -5 1 -10 -4 -10 -6 0 -11 5 -11 10 0 6 2 10 4 10 3 0 8 -4 11
-10z m-332 -641 c-5 -5 -6 139 -3 319 l5 327 3 -319 c1 -176 -1 -323 -5 -327z
m1492 573 c-3 -3 -11 0 -18 7 -9 10 -8 11 6 5 10 -3 15 -9 12 -12z m-1369 -50
c1 -7 0 -8 -3 -2 -2 5 -9 8 -14 4 -5 -3 -9 0 -9 6 0 15 23 7 26 -8z m38 3 c-4
-8 -8 -15 -10 -15 -2 0 -4 7 -4 15 0 8 4 15 10 15 5 0 7 -7 4 -15z m443 -17
c-3 -7 -5 -2 -5 12 0 14 2 19 5 13 2 -7 2 -19 0 -25z m651 15 c-27 -2 -69 -2
-95 0 -27 2 -5 3 47 3 52 0 74 -1 48 -3z m409 0 c-20 -2 -52 -2 -70 0 -17 2 0
4 38 4 39 0 53 -2 32 -4z m-2069 -80 c-71 -2 -185 -2 -255 0 -71 1 -13 3 127
3 140 0 198 -2 128 -3z m167 -4 c11 -16 1 -19 -13 -3 -7 8 -8 14 -3 14 5 0 13
-5 16 -11z m845 -29 c0 -5 -5 -10 -11 -10 -5 0 -7 5 -4 10 3 6 8 10 11 10 2 0
4 -4 4 -10z m697 -15 c1 -15 0 -15 -3 -3 -3 9 -13 19 -22 22 -12 3 -12 4 3 3
12 -1 21 -10 22 -22z m381 0 c4 -19 3 -19 -10 -2 -12 16 -27 18 -116 15 -56
-2 -102 1 -102 5 0 4 51 6 112 5 104 -3 113 -5 116 -23z m-631 -1 c-3 -3 -12
-4 -19 -1 -8 3 -5 6 6 6 11 1 17 -2 13 -5z m-1694 -61 c-24 -2 -62 -2 -85 0
-24 2 -5 4 42 4 47 0 66 -2 43 -4z m330 -8 c-4 -14 -30 -14 -30 0 0 7 7 12 16
10 9 -1 15 -6 14 -10z m433 3 c4 -7 4 -10 -1 -6 -4 4 -15 2 -24 -5 -14 -11
-14 -10 -2 6 16 20 18 21 27 5z m986 -30 c-8 -8 -9 -15 -1 -25 8 -9 8 -13 1
-13 -18 0 -23 18 -10 39 7 11 14 18 17 15 3 -2 -1 -10 -7 -16z m326 5 c-3 -16
-16 -18 -91 -19 l-87 0 86 3 c70 3 85 6 80 18 -3 8 -1 15 5 15 6 0 9 -8 7 -17z
m250 0 c-2 -9 -10 -19 -18 -21 -12 -4 -13 -3 -3 10 7 8 10 18 6 21 -3 4 -1 7
6 7 7 0 11 -8 9 -17z m916 -1 c2 -4 -5 -9 -17 -9 -17 -2 -19 0 -7 7 18 12 18
12 24 2z m-1634 -10 c0 -13 -29 -48 -30 -35 0 6 5 15 10 18 6 4 8 11 5 16 -4
5 -1 9 4 9 6 0 11 -4 11 -8z m253 -9 c-7 -2 -19 -2 -25 0 -7 3 -2 5 12 5 14 0
19 -2 13 -5z m1326 -16 c0 -9 -2 -8 -6 1 -2 6 -10 9 -15 6 -7 -4 -8 -2 -4 5 9
13 26 5 25 -12z m-4001 -48 c-3 -8 -7 -3 -11 10 -4 17 -3 21 5 13 5 -5 8 -16
6 -23z m1148 12 c2 -7 0 -7 -3 -1 -3 8 -9 7 -19 -1 -11 -9 -14 -8 -14 4 0 18
33 16 36 -2z m461 -13 c-3 -8 -6 -5 -6 6 -1 11 2 17 5 13 3 -3 4 -12 1 -19z
m447 11 c3 -3 -4 -5 -14 -6 -11 -1 -22 2 -24 6 -5 8 30 8 38 0z m623 -31 c-3
-8 -6 -5 -6 6 -1 11 2 17 5 13 3 -3 4 -12 1 -19z m463 7 c0 -8 -2 -15 -4 -15
-2 0 -6 7 -10 15 -3 8 -1 15 4 15 6 0 10 -7 10 -15z m-793 -1 c-3 -3 -12 -4
-19 -1 -8 3 -5 6 6 6 11 1 17 -2 13 -5z m-2170 -36 c-3 -8 -6 -5 -6 6 -1 11 2
17 5 13 3 -3 4 -12 1 -19z m3703 18 c0 -3 -4 -8 -10 -11 -5 -3 -10 -1 -10 4 0
6 5 11 10 11 6 0 10 -2 10 -4z m-1410 -16 c0 -5 -5 -10 -11 -10 -5 0 -7 5 -4
10 3 6 8 10 11 10 2 0 4 -4 4 -10z m-1622 -7 c-21 -2 -55 -2 -75 0 -21 2 -4 4
37 4 41 0 58 -2 38 -4z m75 0 c-7 -2 -19 -2 -25 0 -7 3 -2 5 12 5 14 0 19 -2
13 -5z m57 -13 c0 -11 -4 -20 -9 -20 -5 0 -7 9 -4 20 3 11 7 20 9 20 2 0 4 -9
4 -20z m598 -35 c-3 -3 -9 2 -12 12 -6 14 -5 15 5 6 7 -7 10 -15 7 -18z m219
3 c-3 -8 -6 -5 -6 6 -1 11 2 17 5 13 3 -3 4 -12 1 -19z m-2237 3 c0 -6 -4 -12
-8 -15 -5 -3 -9 1 -9 9 0 8 4 15 9 15 4 0 8 -4 8 -9z m3580 -7 c0 -8 -4 -12
-10 -9 -5 3 -10 10 -10 16 0 5 5 9 10 9 6 0 10 -7 10 -16z m-1923 -76 c-2 -18
-4 -6 -4 27 0 33 2 48 4 33 2 -15 2 -42 0 -60z m-1538 69 c-2 -1 -12 -9 -22
-16 -15 -12 -17 -12 -11 3 3 9 13 16 22 16 8 0 13 -1 11 -3z m61 -4 c-8 -3
-18 -11 -22 -17 -5 -7 -8 -4 -8 7 0 11 7 17 23 16 15 0 17 -2 7 -6z m273 0
c-24 -2 -62 -2 -85 0 -24 2 -5 4 42 4 47 0 66 -2 43 -4z m87 -8 c0 -8 -2 -15
-4 -15 -2 0 -6 7 -10 15 -3 8 -1 15 4 15 6 0 10 -7 10 -15z m457 -22 c-4 -3 1
-16 10 -27 18 -21 18 -21 -4 -2 -20 16 -23 36 -6 36 4 0 3 -3 0 -7z m169 -19
c-4 -9 -9 -15 -11 -12 -3 3 -3 13 1 22 4 9 9 15 11 12 3 -3 3 -13 -1 -22z
m511 4 c-3 -8 -6 -5 -6 6 -1 11 2 17 5 13 3 -3 4 -12 1 -19z m-540 -10 c-3 -8
-6 -5 -6 6 -1 11 2 17 5 13 3 -3 4 -12 1 -19z m4163 8 c0 -3 -4 -8 -10 -11 -5
-3 -10 -1 -10 4 0 6 5 11 10 11 6 0 10 -2 10 -4z m-6454 -21 c-11 -8 -25 -15
-30 -15 -6 1 0 7 14 15 32 19 40 18 16 0z m3174 -21 c0 -8 -4 -14 -8 -14 -4 0
-8 9 -8 19 0 11 4 17 8 15 4 -3 8 -12 8 -20z m3294 18 c3 -5 -1 -9 -9 -9 -8 0
-12 4 -9 9 3 4 7 8 9 8 2 0 6 -4 9 -8z m-3337 -24 c-3 -8 -6 -5 -6 6 -1 11 2
17 5 13 3 -3 4 -12 1 -19z m3433 -30 c-4 -49 -5 -50 -8 -14 -3 34 2 66 10 66
2 0 1 -24 -2 -52z m58 11 c-3 -20 -5 -19 -9 9 -3 20 -2 29 4 23 5 -5 7 -19 5
-32z m-4940 5 c14 -15 14 -16 -3 -13 -10 2 -20 10 -23 17 -5 17 6 15 26 -4z
m-1759 2 c-2 -2 -15 -9 -29 -15 -24 -11 -24 -11 -6 3 16 13 49 24 35 12z
m1351 -6 c0 -5 -8 -10 -17 -10 -15 0 -16 2 -3 10 19 12 20 12 20 0z m-1049
-14 c5 3 9 0 9 -6 0 -7 -7 -9 -16 -6 -9 3 -18 6 -20 6 -3 0 -2 5 2 12 6 9 9 9
12 0 2 -7 8 -10 13 -6z m1176 7 c-20 -2 -52 -2 -70 0 -17 2 0 4 38 4 39 0 53
-2 32 -4z m1083 -14 c0 -5 -4 -9 -8 -9 -5 0 -9 7 -9 15 0 8 4 12 9 9 4 -3 8
-9 8 -15z m2647 -11 c0 -13 -1 -17 -4 -10 -3 6 -10 9 -16 5 -7 -4 -6 1 2 10
17 21 17 21 18 -5z m-3019 -13 c-3 -3 -9 2 -12 12 -6 14 -5 15 5 6 7 -7 10
-15 7 -18z m2159 -1 c-3 -3 -12 -4 -19 -1 -8 3 -5 6 6 6 11 1 17 -2 13 -5z
m248 1 c-23 -8 -83 -10 -79 -3 3 4 24 8 47 7 23 0 38 -2 32 -4z m211 -6 c3 -6
1 -16 -5 -22 -9 -9 -11 -8 -6 5 4 11 0 18 -12 21 -15 4 -16 5 -1 6 9 0 20 -4
24 -10z m-1369 -31 c-3 -7 -5 -2 -5 12 0 14 2 19 5 13 2 -7 2 -19 0 -25z
m-2103 11 c9 8 13 7 13 -2 0 -7 -9 -14 -19 -14 -11 -1 -18 5 -17 15 0 11 2 13
6 4 3 -9 9 -10 17 -3z m2353 -4 c0 -8 -4 -15 -9 -15 -4 0 -8 7 -8 15 0 8 4 15
8 15 5 0 9 -7 9 -15z m1723 11 c0 -2 -7 -7 -16 -10 -8 -3 -12 -2 -9 4 6 10 25
14 25 6z m184 -9 c-2 -7 -15 -13 -27 -14 -21 -2 -21 -1 3 12 31 18 30 18 24 2z
m636 3 c-8 -5 -19 -10 -25 -10 -5 0 -3 5 5 10 8 5 20 10 25 10 6 0 3 -5 -5
-10z m560 2 c0 -5 -7 -9 -15 -9 -8 0 -12 4 -9 9 3 4 9 8 15 8 5 0 9 -4 9 -8z
m-3807 -9 c-7 -2 -21 -2 -30 0 -10 3 -4 5 12 5 17 0 24 -2 18 -5z m44 1 c-3
-3 -12 -4 -19 -1 -8 3 -5 6 6 6 11 1 17 -2 13 -5z m-2802 -14 c3 -6 -1 -7 -9
-4 -18 7 -21 14 -7 14 6 0 13 -4 16 -10z m2401 -18 c1 -7 0 -8 -3 -2 -2 5 -9
8 -14 4 -5 -3 -9 0 -9 6 0 15 23 7 26 -8z m-2121 -5 c14 -11 15 -16 5 -22 -9
-6 -11 -4 -5 5 6 10 4 12 -9 7 -11 -5 -15 -3 -10 5 5 8 2 9 -10 5 -10 -4 -15
-3 -11 3 8 13 18 13 40 -3z m5895 -13 c0 -2 -9 0 -20 6 -11 6 -20 13 -20 16 0
2 9 0 20 -6 11 -6 20 -13 20 -16z m253 -47 c8 -6 7 -7 -3 -4 -10 2 -15 17 -16
43 -1 37 -1 38 3 4 3 -19 10 -39 16 -43z m-4778 45 c-3 -3 -11 0 -18 7 -9 10
-8 11 6 5 10 -3 15 -9 12 -12z m5195 14 c0 -11 -19 -15 -25 -6 -3 5 1 10 9 10
9 0 16 -2 16 -4z m80 -132 c0 -129 -8 -174 -31 -174 -6 0 -3 7 6 16 14 14 16
38 13 155 -2 77 0 139 5 139 4 0 7 -61 7 -136z m-34 75 c2 -31 1 -31 -3 -4 -3
16 -10 34 -16 38 -8 6 -7 7 3 4 9 -2 16 -17 16 -38z m-6112 1 c-4 -19 -1 -36
7 -47 8 -9 9 -14 2 -10 -8 5 -12 -30 -12 -132 -1 -124 6 -173 22 -141 3 6 4 5
3 -2 -2 -7 -9 -12 -15 -11 -14 4 -15 -54 -1 -62 7 -4 7 -11 2 -18 -5 -7 -10
-40 -11 -74 -2 -57 -1 -63 18 -63 11 0 23 -4 26 -10 4 -6 -5 -10 -19 -10 -21
0 -26 -5 -26 -24 0 -13 6 -27 13 -29 9 -4 9 -8 -2 -15 -9 -7 -10 -12 -2 -16 6
-4 11 -15 11 -24 0 -15 -2 -15 -10 -2 -8 12 -10 10 -10 -8 0 -15 4 -21 12 -16
7 4 8 3 4 -4 -23 -37 -26 13 -26 368 0 240 4 380 10 380 5 0 7 -13 4 -30z
m1773 -2 c-3 -7 -5 -2 -5 12 0 14 2 19 5 13 2 -7 2 -19 0 -25z m2500 -20 c-2
-13 -4 -5 -4 17 -1 22 1 32 4 23 2 -10 2 -28 0 -40z m1791 24 c4 -25 -28 -60
-52 -56 -28 4 -32 14 -5 14 14 0 30 5 37 12 15 15 16 44 2 51 -6 3 -5 4 2 3 7
-1 14 -12 16 -24z m-4183 9 c3 -5 2 -12 -3 -15 -5 -3 -9 1 -9 9 0 17 3 19 12
6z m590 0 c3 -5 2 -12 -3 -15 -5 -3 -9 1 -9 9 0 17 3 19 12 6z m212 -11 c1
-11 -2 -18 -8 -15 -11 7 -12 35 -1 35 4 0 8 -9 9 -20z m838 0 c-3 -5 -18 -9
-33 -9 l-27 1 30 8 c17 4 31 8 33 9 2 0 0 -3 -3 -9z m185 6 c0 -11 -19 -15
-25 -6 -3 5 1 10 9 10 9 0 16 -2 16 -4z m767 -18 c-3 -8 -6 -5 -6 6 -1 11 2
17 5 13 3 -3 4 -12 1 -19z m1213 2 c-6 -12 -20 -20 -33 -19 -20 1 -20 2 -2 6
11 3 24 11 28 19 13 22 19 16 7 -6z m-6250 -14 c0 -2 -9 -2 -20 1 -11 3 -20 9
-20 15 0 5 9 4 20 -2 11 -6 20 -12 20 -14z m320 14 c0 -5 -5 -10 -11 -10 -5 0
-7 5 -4 10 3 6 8 10 11 10 2 0 4 -4 4 -10z m1867 -22 c-3 -7 -5 -2 -5 12 0 14
2 19 5 13 2 -7 2 -19 0 -25z m3956 25 c-7 -2 -19 -2 -25 0 -7 3 -2 5 12 5 14
0 19 -2 13 -5z m199 0 c-6 -2 -9 -10 -6 -15 4 -7 2 -8 -4 -4 -18 11 -14 26 6
25 10 0 12 -3 4 -6z m-6957 -13 c-3 -5 -11 -10 -16 -10 -6 0 -7 5 -4 10 3 6
11 10 16 10 6 0 7 -4 4 -10z m5555 6 c0 -2 -8 -10 -17 -17 -16 -13 -17 -12 -4
4 13 16 21 21 21 13z m820 -26 c0 -16 -4 -30 -8 -30 -5 0 -7 14 -4 30 2 17 6
30 8 30 2 0 4 -13 4 -30z m510 9 c-7 -11 -14 -19 -16 -16 -7 7 7 37 17 37 6 0
5 -9 -1 -21z m-6481 -37 c-2 -32 -7 -49 -15 -49 -9 0 -10 5 -3 18 13 25 11 66
-3 72 -8 3 -5 6 5 6 15 1 18 -6 16 -47z m6374 41 c-7 -2 -19 -2 -25 0 -7 3 -2
5 12 5 14 0 19 -2 13 -5z m-6242 -31 c-7 -2 -18 1 -23 6 -8 8 -4 9 13 5 13 -4
18 -8 10 -11z m334 8 c-3 -5 -11 -10 -16 -10 -6 0 -7 5 -4 10 3 6 11 10 16 10
6 0 7 -4 4 -10z m3232 -247 c-1 -49 -3 -9 -3 87 0 96 2 136 3 88 2 -49 2 -127
0 -175z m2710 210 c-3 -10 -5 -2 -5 17 0 19 2 27 5 18 2 -10 2 -26 0 -35z
m473 37 c0 -5 -9 -10 -21 -10 -11 0 -17 5 -14 10 3 6 13 10 21 10 8 0 14 -4
14 -10z m-6540 -36 c0 -2 -13 2 -30 11 -16 9 -30 18 -30 21 0 2 14 -2 30 -11
17 -9 30 -18 30 -21z m4747 14 c2 -17 0 -19 -7 -8 -5 8 -6 18 -4 22 8 12 10
10 11 -14z m-3969 -13 c-3 -3 -9 2 -12 12 -6 14 -5 15 5 6 7 -7 10 -15 7 -18z
m237 14 c11 -16 1 -19 -13 -3 -7 8 -8 14 -3 14 5 0 13 -5 16 -11z m143 4 c-21
-2 -57 -2 -80 0 -24 2 -7 4 37 4 44 0 63 -2 43 -4z m-623 -13 c3 -6 -1 -7 -9
-4 -18 7 -21 14 -7 14 6 0 13 -4 16 -10z m2572 -32 c-3 -7 -5 -2 -5 12 0 14 2
19 5 13 2 -7 2 -19 0 -25z m2520 -90 c-2 -24 -4 -5 -4 42 0 47 2 66 4 43 2
-24 2 -62 0 -85z m870 100 c-3 -8 -6 -5 -6 6 -1 11 2 17 5 13 3 -3 4 -12 1
-19z m50 -10 c-3 -7 -5 -2 -5 12 0 14 2 19 5 13 2 -7 2 -19 0 -25z m-7427 8
c0 -3 -4 -8 -10 -11 -5 -3 -10 -1 -10 4 0 6 5 11 10 11 6 0 10 -2 10 -4z m190
-12 c0 -8 -19 -13 -24 -6 -3 5 1 9 9 9 8 0 15 -2 15 -3z m5620 -4 c-8 -5 -19
-10 -25 -10 -5 0 -3 5 5 10 8 5 20 10 25 10 6 0 3 -5 -5 -10z m620 -10 c-8 -6
-22 -10 -30 -10 -8 0 -4 6 10 13 27 15 44 12 20 -3z m-4933 -12 c-3 -8 -6 -5
-6 6 -1 11 2 17 5 13 3 -3 4 -12 1 -19z m-440 -10 c-3 -8 -6 -5 -6 6 -1 11 2
17 5 13 3 -3 4 -12 1 -19z m4253 -13 c0 -5 -5 -3 -10 5 -5 8 -10 20 -10 25 0
6 5 3 10 -5 5 -8 10 -19 10 -25z m-3942 0 c-3 -3 -9 2 -12 12 -6 14 -5 15 5 6
7 -7 10 -15 7 -18z m1767 7 c-3 -3 -11 0 -18 7 -9 10 -8 11 6 5 10 -3 15 -9
12 -12z m3240 8 c-3 -5 -12 -10 -18 -10 -7 0 -6 4 3 10 19 12 23 12 15 0z
m974 -3 c8 -11 4 -13 -20 -9 -22 3 -27 7 -18 13 19 12 25 11 38 -4z m-4089
-18 c0 -5 -12 -8 -27 -8 -24 2 -25 2 -5 6 13 3 19 9 16 15 -4 7 -2 8 4 4 7 -4
12 -11 12 -17z m2327 -11 c-3 -7 -5 -2 -5 12 0 14 2 19 5 13 2 -7 2 -19 0 -25z
m1360 -30 c-2 -13 -4 -3 -4 22 0 25 2 35 4 23 2 -13 2 -33 0 -45z m760 47 c0
-8 -4 -12 -9 -9 -5 3 -6 10 -3 15 9 13 12 11 12 -6z m-5815 -17 c-7 -7 -12 -8
-12 -2 0 14 12 26 19 19 2 -3 -1 -11 -7 -17z m1398 18 c0 -3 -4 -8 -10 -11 -5
-3 -10 -1 -10 4 0 6 5 11 10 11 6 0 10 -2 10 -4z m-1653 -28 c-3 -8 -6 -5 -6
6 -1 11 2 17 5 13 3 -3 4 -12 1 -19z m1706 15 c-7 -2 -19 -2 -25 0 -7 3 -2 5
12 5 14 0 19 -2 13 -5z m-1893 -18 c0 -2 -6 -5 -13 -8 -8 -3 -14 1 -14 8 0 7
6 11 14 8 7 -3 13 -6 13 -8z m1490 0 c0 -8 -2 -15 -4 -15 -2 0 -6 7 -10 15 -3
8 -1 15 4 15 6 0 10 -7 10 -15z m1018 -16 c-3 -8 -7 -3 -11 10 -4 17 -3 21 5
13 5 -5 8 -16 6 -23z m-3821 -361 c-1 -73 -3 -16 -3 127 0 143 2 203 3 133 2
-70 2 -187 0 -260z m604 365 c13 -16 12 -17 -3 -4 -17 13 -22 21 -14 21 2 0
10 -8 17 -17z m4889 3 c0 -2 -7 -7 -16 -10 -8 -3 -12 -2 -9 4 6 10 25 14 25 6z
m1377 -18 c-3 -8 -6 -5 -6 6 -1 11 2 17 5 13 3 -3 4 -12 1 -19z m-6464 -55 c2
-29 0 -50 -5 -47 -4 3 -8 31 -7 62 1 66 6 60 12 -15z m5117 52 c0 -2 -10 -9
-22 -15 -22 -11 -22 -10 -4 4 21 17 26 19 26 11z m-3925 -15 c3 -5 1 -10 -4
-10 -6 0 -11 5 -11 10 0 6 2 10 4 10 3 0 8 -4 11 -10z m5610 0 c3 -5 1 -10 -4
-10 -6 0 -11 5 -11 10 0 6 2 10 4 10 3 0 8 -4 11 -10z m-6465 -25 c0 -14 -4
-25 -9 -25 -4 0 -6 11 -3 25 2 14 6 25 8 25 2 0 4 -11 4 -25z m281 8 c13 -16
12 -17 -3 -4 -17 13 -22 21 -14 21 2 0 10 -8 17 -17z m4426 -15 c-3 -8 -6 -5
-6 6 -1 11 2 17 5 13 3 -3 4 -12 1 -19z m2152 -17 c-1 -13 -2 -13 -6 1 -4 15
-8 16 -24 7 -19 -10 -20 -9 -9 11 9 17 14 19 26 9 8 -6 13 -19 13 -28z m-789
9 c0 -11 -4 -20 -9 -20 -5 0 -7 9 -4 20 3 11 7 20 9 20 2 0 4 -9 4 -20z
m-4010 -7 c0 -10 -4 -14 -8 -8 -4 6 -11 13 -16 18 -5 4 -2 7 7 7 10 0 17 -8
17 -17z m2960 -4 c-7 -11 -14 -18 -17 -15 -3 3 0 12 7 21 18 21 23 19 10 -6z
m-6403 5 c-3 -3 -12 -4 -19 -1 -8 3 -5 6 6 6 11 1 17 -2 13 -5z m2270 -56 c-2
-13 -4 -3 -4 22 0 25 2 35 4 23 2 -13 2 -33 0 -45z m3111 55 c-32 -2 -84 -2
-115 0 -32 2 -6 3 57 3 63 0 89 -1 58 -3z m135 0 c-7 -2 -19 -2 -25 0 -7 3 -2
5 12 5 14 0 19 -2 13 -5z m1493 -61 c-11 -10 -14 3 -7 38 l6 35 3 -33 c2 -19
1 -36 -2 -40z m1269 50 c-3 -3 -11 0 -18 7 -9 10 -8 11 6 5 10 -3 15 -9 12
-12z m-5618 -14 c-3 -8 -6 -5 -6 6 -1 11 2 17 5 13 3 -3 4 -12 1 -19z m3430
-15 c-3 -10 -5 -4 -5 12 0 17 2 24 5 18 2 -7 2 -21 0 -30z m-2500 -35 c-2 -13
-4 -3 -4 22 0 25 2 35 4 23 2 -13 2 -33 0 -45z m-3712 42 c3 -6 -4 -10 -17
-10 -18 0 -20 2 -8 10 19 12 18 12 25 0z m7575 -5 c0 -8 -2 -15 -4 -15 -2 0
-6 7 -10 15 -3 8 -1 15 4 15 6 0 10 -7 10 -15z m-6325 -13 c-3 -3 -11 0 -18 7
-9 10 -8 11 6 5 10 -3 15 -9 12 -12z m1012 -34 c-2 -13 -4 -5 -4 17 -1 22 1
32 4 23 2 -10 2 -28 0 -40z m568 42 c3 -5 -1 -10 -10 -10 -9 0 -13 5 -10 10 3
6 8 10 10 10 2 0 7 -4 10 -10z m1072 -22 c-3 -7 -5 -2 -5 12 0 14 2 19 5 13 2
-7 2 -19 0 -25z m1383 8 c0 -2 -9 -6 -20 -9 -11 -3 -18 -1 -14 4 5 9 34 13 34
5z m967 -18 c-3 -8 -6 -5 -6 6 -1 11 2 17 5 13 3 -3 4 -12 1 -19z m1458 12
c-3 -5 -11 -10 -16 -10 -6 0 -7 5 -4 10 3 6 11 10 16 10 6 0 7 -4 4 -10z m295
-21 c0 -6 -4 -7 -10 -4 -5 3 -10 11 -10 16 0 6 5 7 10 4 6 -3 10 -11 10 -16z
m765 11 c3 -5 1 -10 -4 -10 -6 0 -11 5 -11 10 0 6 2 10 4 10 3 0 8 -4 11 -10z
m-8865 -10 c0 -5 -4 -10 -10 -10 -5 0 -10 5 -10 10 0 6 5 10 10 10 6 0 10 -4
10 -10z m2877 -12 c-3 -8 -6 -5 -6 6 -1 11 2 17 5 13 3 -3 4 -12 1 -19z m4790
-25 c-3 -10 -5 -4 -5 12 0 17 2 24 5 18 2 -7 2 -21 0 -30z m-7514 12 c-3 -9
-8 -14 -10 -11 -3 3 -2 9 2 15 9 16 15 13 8 -4z m1107 -30 c0 -25 -3 -45 -8
-45 -4 0 -6 20 -4 45 2 25 6 45 8 45 2 0 4 -20 4 -45z m167 30 c0 -8 -4 -15
-9 -15 -10 0 -11 14 -1 23 9 10 10 9 10 -8z m2230 -227 c-1 -46 -3 -9 -3 82 0
91 2 128 3 83 2 -46 2 -120 0 -165z m1050 220 c-3 -8 -6 -5 -6 6 -1 11 2 17 5
13 3 -3 4 -12 1 -19z m-740 6 c-3 -3 -12 -4 -19 -1 -8 3 -5 6 6 6 11 1 17 -2
13 -5z m358 -4 c3 -5 1 -10 -4 -10 -6 0 -11 5 -11 10 0 6 2 10 4 10 3 0 8 -4
11 -10z m-3655 -4 c0 -8 -61 -12 -66 -4 -3 4 11 8 30 8 20 0 36 -2 36 -4z m50
-5 c0 -5 -9 -7 -20 -4 -11 3 -20 7 -20 9 0 2 9 4 20 4 11 0 20 -4 20 -9z
m3528 2 c-10 -2 -26 -2 -35 0 -10 3 -2 5 17 5 19 0 27 -2 18 -5z m4206 -1 c3
-5 -1 -9 -9 -9 -8 0 -15 4 -15 9 0 4 4 8 9 8 6 0 12 -4 15 -8z m-5824 -12 c0
-5 -7 -7 -15 -4 -8 4 -15 8 -15 10 0 2 7 4 15 4 8 0 15 -4 15 -10z m147 -5 c0
-8 -4 -15 -9 -15 -4 0 -8 7 -8 15 0 8 4 15 8 15 5 0 9 -7 9 -15z m3530 -22
c-3 -10 -5 -4 -5 12 0 17 2 24 5 18 2 -7 2 -21 0 -30z m-3087 12 c0 -8 -7 -15
-15 -15 -16 0 -20 12 -8 23 11 12 23 8 23 -8z m3419 -3 c22 2 41 0 41 -4 0 -4
-39 -7 -86 -7 -88 0 -101 4 -50 13 16 3 31 8 34 11 3 3 9 0 13 -6 4 -7 24 -10
48 -7z m-2832 -24 c-3 -7 -5 -2 -5 12 0 14 2 19 5 13 2 -7 2 -19 0 -25z m1423
28 c0 -3 -4 -8 -10 -11 -5 -3 -10 -1 -10 4 0 6 5 11 10 11 6 0 10 -2 10 -4z
m2380 -12 c0 -2 -16 -4 -35 -4 -19 0 -35 4 -35 8 0 4 16 6 35 4 19 -2 35 -6
35 -8z m117 -6 c-3 -8 -6 -5 -6 6 -1 11 2 17 5 13 3 -3 4 -12 1 -19z m353 12
c0 -5 -2 -10 -4 -10 -3 0 -8 5 -11 10 -3 6 -1 10 4 10 6 0 11 -4 11 -10z m97
-12 c-3 -8 -6 -5 -6 6 -1 11 2 17 5 13 3 -3 4 -12 1 -19z m-1152 -5 c-96 -3
-142 -7 -147 -16 -5 -7 -8 -8 -8 -1 0 22 16 24 154 22 l141 -2 -140 -3z m682
1 c-3 -3 -12 -4 -19 -1 -8 3 -5 6 6 6 11 1 17 -2 13 -5z m-4813 -19 c-4 -8 -8
-15 -10 -15 -2 0 -4 7 -4 15 0 8 4 15 10 15 5 0 7 -7 4 -15z m1943 -97 c-2
-24 -4 -7 -4 37 0 44 2 63 4 43 2 -21 2 -57 0 -80z m60 35 c-2 -16 -4 -3 -4
27 0 30 2 43 4 28 2 -16 2 -40 0 -55z m351 51 c0 -17 -3 -22 -8 -13 -5 6 -6
18 -3 26 8 19 11 16 11 -13z m-2760 -42 c3 -47 1 -52 -11 -40 -9 8 -11 15 -5
19 5 3 8 19 6 35 -2 20 -10 30 -28 36 -23 6 -23 7 5 5 29 -2 30 -4 33 -55z
m747 48 c3 -5 -1 -10 -9 -10 -9 0 -16 5 -16 10 0 6 4 10 9 10 6 0 13 -4 16
-10z m4460 -10 c10 -11 16 -20 13 -20 -3 0 -13 9 -23 20 -10 11 -16 20 -13 20
3 0 13 -9 23 -20z m-7235 0 c8 -5 11 -10 5 -10 -5 0 -17 5 -25 10 -8 5 -10 10
-5 10 6 0 17 -5 25 -10z m820 -5 c0 -1 -9 -5 -19 -8 -13 -3 -18 -1 -14 9 4 10
33 10 33 -1z m2321 -13 c-13 -2 -27 0 -32 5 -6 6 3 7 23 4 28 -4 29 -6 9 -9z
m254 0 c-3 -3 -11 0 -18 7 -9 10 -8 11 6 5 10 -3 15 -9 12 -12z m1370 8 c3 -5
1 -10 -4 -10 -6 0 -11 5 -11 10 0 6 2 10 4 10 3 0 8 -4 11 -10z m-3082 -15
c-3 -9 -8 -14 -10 -11 -3 3 -2 9 2 15 9 16 15 13 8 -4z m1830 2 c3 -8 -4 -13
-22 -14 -19 -1 -21 1 -6 4 l20 6 -20 8 c-19 7 -19 8 1 8 12 1 24 -5 27 -12z
m421 5 c2 -4 -4 -9 -15 -9 -10 -1 -19 2 -19 8 0 11 27 12 34 1z m3913 -29 c-3
-10 -5 -4 -5 12 0 17 2 24 5 18 2 -7 2 -21 0 -30z m-5676 10 c19 3 43 2 54 -3
14 -6 -1 -9 -47 -9 -63 -1 -79 5 -61 22 4 4 10 2 14 -4 4 -7 20 -9 40 -6z
m6099 1 c0 -2 -11 -4 -25 -4 -14 0 -25 4 -25 9 0 4 11 6 25 3 14 -2 25 -6 25
-8z m-8268 -18 c7 4 8 2 4 -4 -11 -17 -36 -3 -28 16 6 16 7 15 10 -1 2 -9 8
-14 14 -11z m2488 14 c0 -5 -7 -10 -16 -10 -8 0 -12 5 -9 10 3 6 10 10 16 10
5 0 9 -4 9 -10z m286 -17 c-10 -10 -19 5 -10 18 6 11 8 11 12 0 2 -7 1 -15 -2
-18z m5032 20 c-16 -2 -40 -2 -55 0 -16 2 -3 4 27 4 30 0 43 -2 28 -4z m-6484
-18 c-4 -10 0 -15 15 -15 12 0 21 -4 21 -9 0 -9 -24 -21 -41 -21 -10 0 -12 43
-2 53 10 11 13 8 7 -8z m3801 5 c3 -6 -1 -7 -9 -4 -18 7 -21 14 -7 14 6 0 13
-4 16 -10z m-4328 -57 c0 -52 0 -54 -6 -18 -6 35 -4 75 4 75 1 0 2 -26 2 -57z
m2658 47 c3 -5 -3 -10 -15 -10 -12 0 -18 5 -15 10 3 6 10 10 15 10 5 0 12 -4
15 -10z m3035 1 c0 -6 -4 -13 -10 -16 -5 -3 -10 1 -10 9 0 9 5 16 10 16 6 0
10 -4 10 -9z m150 -1 c0 -5 -7 -7 -15 -4 -8 4 -15 8 -15 10 0 2 7 4 15 4 8 0
15 -4 15 -10z m-5736 -9 c4 -5 -3 -7 -14 -4 -23 6 -26 13 -6 13 8 0 17 -4 20
-9z m66 -1 c0 -5 -5 -10 -11 -10 -5 0 -7 5 -4 10 3 6 8 10 11 10 2 0 4 -4 4
-10z m934 -15 c-4 -8 -8 -15 -10 -15 -2 0 -4 7 -4 15 0 8 4 15 10 15 5 0 7 -7
4 -15z m6676 5 c0 -5 -5 -10 -11 -10 -5 0 -7 5 -4 10 3 6 8 10 11 10 2 0 4 -4
4 -10z m71 -8 c-18 -2 -37 0 -42 5 -5 5 11 6 34 3 41 -4 41 -5 8 -8z m-7511
-22 c0 -16 -2 -30 -4 -30 -2 0 -11 -3 -20 -6 -9 -3 -16 -1 -16 5 0 6 7 11 15
11 18 0 20 21 3 38 -9 9 -8 12 5 12 12 0 17 -8 17 -30z m3297 -2 c-3 -7 -5 -2
-5 12 0 14 2 19 5 13 2 -7 2 -19 0 -25z m1410 0 c-3 -7 -5 -2 -5 12 0 14 2 19
5 13 2 -7 2 -19 0 -25z m-2287 10 c0 -4 -4 -8 -9 -8 -6 0 -12 4 -15 8 -3 5 1
9 9 9 8 0 15 -4 15 -9z m354 -4 c8 -21 9 -20 -13 -20 -12 0 -17 6 -13 18 5 22
18 23 26 2z m-4019 -4 c-3 -5 -12 -10 -18 -10 -7 0 -6 4 3 10 19 12 23 12 15
0z m99 -6 c3 -8 2 -12 -4 -9 -6 3 -10 10 -10 16 0 14 7 11 14 -7z m1749 2 c4
-10 0 -12 -15 -8 -15 4 -17 7 -6 13 17 11 15 11 21 -5z m1642 3 c4 -6 5 -13 2
-16 -8 -7 -47 7 -47 18 0 13 37 11 45 -2z m3753 -71 l-2 -83 -3 77 c-4 70 -6
77 -26 81 -18 4 -17 5 6 6 l27 1 -2 -82z m-7561 35 c-3 -10 -5 -4 -5 12 0 17
2 24 5 18 2 -7 2 -21 0 -30z m2320 5 c-3 -7 -5 -2 -5 12 0 14 2 19 5 13 2 -7
2 -19 0 -25z m6520 -60 c-2 -18 -4 -4 -4 32 0 36 2 50 4 33 2 -18 2 -48 0 -65z
m-8480 50 c-3 -7 -5 -2 -5 12 0 14 2 19 5 13 2 -7 2 -19 0 -25z m250 -35 c-2
-16 -4 -5 -4 22 0 28 2 40 4 28 2 -13 2 -35 0 -50z m50 0 c-2 -16 -4 -5 -4 22
0 28 2 40 4 28 2 -13 2 -35 0 -50z m6210 61 c-3 -3 -12 -4 -19 -1 -8 3 -5 6 6
6 11 1 17 -2 13 -5z m1400 -26 c-3 -7 -5 -2 -5 12 0 14 2 19 5 13 2 -7 2 -19
0 -25z m-2830 0 c-3 -8 -6 -5 -6 6 -1 11 2 17 5 13 3 -3 4 -12 1 -19z m-5174
-19 c-9 -9 -12 -7 -10 9 1 14 5 18 11 12 7 -7 6 -14 -1 -21z m2624 25 c-3 -3
-12 -4 -19 -1 -8 3 -5 6 6 6 11 1 17 -2 13 -5z m979 -13 c-10 -11 -24 -17 -32
-14 -29 11 -10 28 35 32 11 1 10 -4 -3 -18z m109 9 c-3 -5 -10 -10 -16 -10 -5
0 -9 5 -9 10 0 6 7 10 16 10 8 0 12 -4 9 -10z m305 6 c0 -11 -19 -15 -25 -6
-3 5 1 10 9 10 9 0 16 -2 16 -4z m575 -6 c-3 -5 -18 -9 -33 -9 l-27 1 30 8
c17 4 31 8 33 9 2 0 0 -3 -3 -9z m652 4 c-3 -3 -12 -4 -19 -1 -8 3 -5 6 6 6
11 1 17 -2 13 -5z m77 -3 c3 -4 -6 -6 -19 -3 -14 2 -25 6 -25 8 0 8 39 4 44
-5z m123 3 c-3 -3 -12 -4 -19 -1 -8 3 -5 6 6 6 11 1 17 -2 13 -5z m106 -1 c-7
-2 -19 -2 -25 0 -7 3 -2 5 12 5 14 0 19 -2 13 -5z m1412 -2 c3 -5 2 -12 -3
-15 -5 -3 -9 1 -9 9 0 17 3 19 12 6z m-1465 -11 c0 -5 -5 -10 -11 -10 -5 0 -7
5 -4 10 3 6 8 10 11 10 2 0 4 -4 4 -10z m680 0 c0 -5 -2 -10 -4 -10 -3 0 -8 5
-11 10 -3 6 -1 10 4 10 6 0 11 -4 11 -10z m2607 -8 c0 -10 -6 -19 -12 -19 -6
0 -12 9 -12 19 -1 10 4 18 12 18 8 0 13 -8 12 -18z m-8642 -2 c3 -5 -1 -10
-10 -10 -9 0 -13 5 -10 10 3 6 8 10 10 10 2 0 7 -4 10 -10z m5052 -12 c-3 -8
-6 -5 -6 6 -1 11 2 17 5 13 3 -3 4 -12 1 -19z m-5237 -3 c0 -2 -9 -9 -19 -15
-14 -7 -22 -7 -27 2 -4 6 -3 8 2 5 6 -3 16 -2 24 4 17 10 20 11 20 4z m1620
-30 c5 3 11 1 14 -4 4 -5 -2 -8 -11 -7 -10 2 -18 11 -19 22 -1 16 0 16 3 1 3
-9 8 -15 13 -12z m1760 26 c0 -5 -9 -11 -20 -14 -20 -5 -26 3 -13 16 9 10 33
8 33 -2z m635 -1 c3 -5 1 -10 -4 -10 -6 0 -11 5 -11 10 0 6 2 10 4 10 3 0 8
-4 11 -10z m1772 4 c-3 -3 -12 -4 -19 -1 -8 3 -5 6 6 6 11 1 17 -2 13 -5z
m667 -2 c3 -5 -1 -9 -9 -9 -8 0 -12 4 -9 9 3 4 7 8 9 8 2 0 6 -4 9 -8z m-6629
-11 c-16 -4 -29 -12 -28 -17 1 -5 -8 -11 -20 -11 -21 -2 -21 -1 -3 9 15 8 16
12 5 19 -9 6 2 8 31 8 40 -1 42 -2 15 -8z m4560 -1 c-3 -5 -12 -7 -20 -3 -21
7 -19 13 6 13 11 0 18 -4 14 -10z m112 -22 c-3 -7 -5 -2 -5 12 0 14 2 19 5 13
2 -7 2 -19 0 -25z m746 -8 c18 0 19 2 7 10 -12 8 -9 10 13 10 30 0 38 -26 10
-32 -40 -8 -63 3 -62 31 2 23 2 24 6 4 3 -16 11 -23 26 -23z m977 20 c0 -5 -5
-10 -11 -10 -5 0 -7 5 -4 10 3 6 8 10 11 10 2 0 4 -4 4 -10z m-6180 -10 c0 -5
-2 -10 -4 -10 -3 0 -8 5 -11 10 -3 6 -1 10 4 10 6 0 11 -4 11 -10z m1850 -6
c0 -2 -7 -4 -15 -4 -8 0 -15 4 -15 10 0 5 7 7 15 4 8 -4 15 -8 15 -10z m337
-6 c-3 -8 -6 -5 -6 6 -1 11 2 17 5 13 3 -3 4 -12 1 -19z m3126 15 c-7 -2 -21
-2 -30 0 -10 3 -4 5 12 5 17 0 24 -2 18 -5z m230 0 c-7 -2 -19 -2 -25 0 -7 3
-2 5 12 5 14 0 19 -2 13 -5z m467 -18 c0 -14 -4 -25 -9 -25 -4 0 -6 11 -3 25
2 14 6 25 8 25 2 0 4 -11 4 -25z m2637 3 c-3 -8 -6 -5 -6 6 -1 11 2 17 5 13 3
-3 4 -12 1 -19z m-8752 -6 c-3 -3 -11 0 -18 7 -9 10 -8 11 6 5 10 -3 15 -9 12
-12z m65 6 c0 -4 -4 -8 -9 -8 -6 0 -12 4 -15 8 -3 5 1 9 9 9 8 0 15 -4 15 -9z
m407 6 c-3 -3 -12 -4 -19 -1 -8 3 -5 6 6 6 11 1 17 -2 13 -5z m3180 -14 c1
-11 -4 -20 -12 -20 -8 0 -13 9 -12 20 1 11 6 20 12 20 6 0 11 -9 12 -20z
m5240 -3 c1 -11 1 -18 0 -16 -2 2 -8 11 -15 20 -9 12 -9 16 1 16 7 0 14 -9 14
-20z m-3373 1 c-3 -4 -20 -8 -37 -7 -27 0 -29 2 -12 9 25 10 55 9 49 -2z
m-3555 -7 c9 -6 5 -8 -13 -8 -14 0 -26 3 -26 8 0 11 21 11 39 0z m2096 -1 c-3
-5 -15 -10 -25 -10 -10 0 -22 5 -25 10 -4 6 7 10 25 10 18 0 29 -4 25 -10z
m4939 2 c3 -5 -1 -9 -9 -9 -8 0 -12 4 -9 9 3 4 7 8 9 8 2 0 6 -4 9 -8z m-7921
-9 c-7 -2 -19 -2 -25 0 -7 3 -2 5 12 5 14 0 19 -2 13 -5z m2384 1 c-3 -3 -12
-4 -19 -1 -8 3 -5 6 6 6 11 1 17 -2 13 -5z m5884 -102 c1 -45 -1 -85 -5 -89
-3 -3 -6 36 -6 87 0 114 8 116 11 2z m-9955 23 c-23 -17 -36 -19 -36 -6 0 11
18 19 40 20 11 0 10 -3 -4 -14z m234 -112 c-35 -2 -68 -9 -72 -16 -6 -9 -10
-9 -15 -1 -5 6 -15 14 -23 17 -8 3 28 5 80 4 73 -1 80 -2 30 -4z m133 0 c3 -5
-10 -9 -29 -10 -19 -2 -34 2 -34 7 0 12 57 14 63 3z m145 0 c-10 -2 -28 -2
-40 0 -13 2 -5 4 17 4 22 1 32 -1 23 -4z m2414 0 c-95 -2 -171 -7 -168 -12 3
-4 -1 -8 -9 -8 -8 0 -12 4 -9 9 3 4 -11 8 -30 8 -37 0 -57 -17 -36 -30 9 -6
10 -9 0 -15 -7 -4 -16 -2 -20 6 -5 7 -26 14 -46 15 -21 1 -40 7 -42 13 -5 15
-1752 16 -1752 1 0 -5 -7 -10 -15 -10 -8 0 -15 4 -15 9 0 6 -24 12 -52 14 -29
2 492 3 1157 3 666 0 1132 -2 1037 -3z m215 1 c-3 -3 -12 -4 -19 -1 -8 3 -5 6
6 6 11 1 17 -2 13 -5z m2188 -4 c-3 -5 -1 -10 4 -10 6 0 11 -5 11 -10 0 -12
-46 -5 -64 9 -9 8 -353 12 -1072 14 l-1059 2 1093 3 c727 1 1091 -1 1087 -8z
m48 -8 c-10 -10 -20 -17 -22 -16 -6 5 20 34 30 34 5 0 1 -8 -8 -18z m154 12
c-3 -3 -12 -4 -19 -1 -8 3 -5 6 6 6 11 1 17 -2 13 -5z m60 0 c-3 -3 -12 -4
-19 -1 -8 3 -5 6 6 6 11 1 17 -2 13 -5z m90 0 c-3 -3 -12 -4 -19 -1 -8 3 -5 6
6 6 11 1 17 -2 13 -5z m2394 -3 c-35 -3 -82 -6 -105 -6 -22 0 -44 -4 -48 -10
-5 -6 -8 -5 -8 3 0 15 -335 18 -345 2 -3 -5 -12 -7 -20 -4 -10 4 -12 0 -8 -15
4 -15 1 -21 -11 -21 -9 0 -15 3 -15 8 7 44 25 42 -403 41 -290 -1 -405 -4
-410 -13 -6 -8 -10 -7 -16 2 -12 18 -692 15 -705 -2 -6 -8 -10 -7 -14 2 -2 6
-9 12 -14 12 -6 0 -7 -4 -4 -10 3 -5 1 -10 -4 -10 -6 0 -11 4 -11 10 0 5 -47
11 -107 13 -60 1 437 3 1102 3 666 1 1181 -2 1146 -5z m1121 2 c-645 -3 -726
-5 -747 -19 -14 -9 -25 -12 -25 -6 0 6 6 13 13 15 6 3 -8 6 -32 6 -34 1 -42
-2 -37 -14 4 -11 -2 -15 -22 -14 -15 0 -21 3 -14 6 33 13 3 23 -85 26 -54 1
300 3 787 2 802 0 817 0 162 -2z m-8442 -17 c0 -3 -4 -8 -10 -11 -5 -3 -10 -1
-10 4 0 6 5 11 10 11 6 0 10 -2 10 -4z m90 -6 c0 -5 -4 -10 -10 -10 -5 0 -10
5 -10 10 0 6 5 10 10 10 6 0 10 -4 10 -10z m185 0 c-3 -5 -10 -10 -16 -10 -5
0 -9 5 -9 10 0 6 7 10 16 10 8 0 12 -4 9 -10z m65 0 c0 -5 -4 -10 -9 -10 -6 0
-13 5 -16 10 -3 6 1 10 9 10 9 0 16 -4 16 -10z m1078 -8 c2 -7 -6 -12 -17 -12
-21 0 -27 11 -14 24 9 9 26 2 31 -12z m239 12 c-3 -3 -12 -4 -19 -1 -8 3 -5 6
6 6 11 1 17 -2 13 -5z m95 -16 c-6 -6 -16 -7 -22 -3 -9 6 -9 9 1 16 17 10 34
0 21 -13z m1033 12 c3 -5 -1 -10 -10 -10 -9 0 -13 5 -10 10 3 6 8 10 10 10 2
0 7 -4 10 -10z m1285 0 c0 -5 -7 -10 -15 -10 -8 0 -15 5 -15 10 0 6 7 10 15
10 8 0 15 -4 15 -10z m195 0 c3 -5 -1 -10 -9 -10 -9 0 -16 5 -16 10 0 6 4 10
9 10 6 0 13 -4 16 -10z m815 0 c0 -5 -7 -10 -15 -10 -8 0 -15 5 -15 10 0 6 7
10 15 10 8 0 15 -4 15 -10z m827 4 c-3 -3 -12 -4 -19 -1 -8 3 -5 6 6 6 11 1
17 -2 13 -5z m1938 -4 c3 -5 -1 -10 -10 -10 -9 0 -13 5 -10 10 3 6 8 10 10 10
2 0 7 -4 10 -10z m58 4 c11 -11 -3 -24 -18 -18 -8 4 -12 10 -9 15 6 11 18 12
27 3z m-8388 -13 c-6 -5 -23 -12 -40 -16 -29 -6 -29 -6 -11 9 21 17 67 23 51
7z m250 -1 c-3 -5 -10 -10 -16 -10 -5 0 -9 5 -9 10 0 6 7 10 16 10 8 0 12 -4
9 -10z m45 -6 c0 -2 -7 -4 -15 -4 -8 0 -15 4 -15 10 0 5 7 7 15 4 8 -4 15 -8
15 -10z m1315 6 c3 -6 -1 -7 -9 -4 -18 7 -21 14 -7 14 6 0 13 -4 16 -10z m42
4 c-3 -3 -12 -4 -19 -1 -8 3 -5 6 6 6 11 1 17 -2 13 -5z m183 -4 c0 -5 -8 -10
-17 -10 -15 0 -16 2 -3 10 19 12 20 12 20 0z m110 0 c0 -5 -7 -7 -15 -4 -8 4
-15 8 -15 10 0 2 7 4 15 4 8 0 15 -4 15 -10z m1180 6 c0 -3 -4 -8 -10 -11 -5
-3 -10 -1 -10 4 0 6 5 11 10 11 6 0 10 -2 10 -4z m2005 -6 c-3 -5 -10 -10 -16
-10 -5 0 -9 5 -9 10 0 6 7 10 16 10 8 0 12 -4 9 -10z m-2978 -68 c2 -59 -11
-88 -27 -63 -5 10 -7 113 -1 129 0 2 7 2 13 0 8 -3 13 -28 15 -66z m3358 58
c3 -5 3 -10 -2 -11 -10 -1 -49 -7 -85 -13 -15 -3 -30 -1 -33 4 -4 7 24 14 107
29 4 0 10 -3 13 -9z m1870 -9 c-3 -6 -21 -11 -40 -11 -33 0 -54 -14 -41 -28 4
-3 22 -6 41 -6 19 0 35 -3 35 -7 0 -16 -21 -20 -54 -11 -29 8 -36 7 -42 -6 -4
-10 -6 -21 -5 -26 1 -5 -5 -16 -14 -26 -8 -9 -12 -20 -8 -23 3 -4 -3 -7 -15
-7 -15 0 -20 5 -16 15 4 8 12 15 19 15 14 0 14 37 1 58 -5 8 1 12 16 13 22 0
22 1 3 8 -18 7 -15 10 21 28 22 11 53 19 67 19 15 -1 27 3 27 8 0 5 3 7 6 3 3
-3 3 -10 -1 -16z m354 5 c7 -8 22 -12 34 -10 13 2 16 1 7 -2 -8 -4 -17 -11
-20 -15 -3 -5 -23 -2 -44 5 -35 12 -37 15 -20 24 25 15 29 15 43 -2z m115 -7
c-3 -5 -17 -9 -32 -9 -25 1 -26 2 -9 15 20 14 51 10 41 -6z m-7465 -3 c8 -10
9 -16 1 -21 -5 -3 -10 -1 -10 4 0 6 -7 11 -15 11 -8 0 -15 5 -15 10 0 15 26
12 39 -4z m350 -2 c10 -9 -6 -12 -31 -7 -15 3 -25 9 -22 15 5 8 41 2 53 -8z
m5131 -30 c0 0 -18 -1 -40 -1 -22 0 -40 4 -40 8 0 5 5 9 10 9 6 0 9 3 9 8 -3
20 4 21 31 0 17 -12 30 -23 30 -24z m674 21 c-17 -26 -26 -30 -37 -19 -7 8 30
44 45 44 5 0 1 -11 -8 -25z m646 -21 c0 -8 7 -14 16 -14 8 0 12 -5 9 -10 -5
-8 -11 -8 -20 0 -7 6 -26 8 -42 4 -26 -6 -27 -5 -9 8 18 14 18 15 -2 30 -12 8
-19 17 -16 20 9 10 64 -23 64 -38z m50 36 c0 -5 -7 -10 -15 -10 -8 0 -15 5
-15 10 0 6 7 10 15 10 8 0 15 -4 15 -10z m1020 -5 c0 -8 7 -15 15 -15 8 0 15
-4 15 -10 0 -5 -24 -7 -57 -4 -63 6 -76 11 -68 25 5 7 29 7 53 0 7 -2 17 5 15
12 -2 4 4 7 12 7 8 0 15 -7 15 -15z m-8220 -5 c0 -5 -2 -10 -4 -10 -3 0 -8 5
-11 10 -3 6 -1 10 4 10 6 0 11 -4 11 -10z m2805 0 c-3 -5 -10 -10 -16 -10 -5
0 -9 5 -9 10 0 6 7 10 16 10 8 0 12 -4 9 -10z m125 0 c0 -5 -7 -10 -15 -10 -8
0 -15 5 -15 10 0 6 7 10 15 10 8 0 15 -4 15 -10z m1314 -6 c5 -12 0 -15 -21
-12 -14 2 -28 9 -31 16 -6 18 45 15 52 -4z m676 6 c0 -5 -4 -10 -10 -10 -5 0
-10 5 -10 10 0 6 5 10 10 10 6 0 10 -4 10 -10z m1515 -10 c18 -19 17 -20 -4
-20 -12 0 -19 4 -16 10 3 6 1 10 -5 10 -6 0 -8 5 -5 10 8 13 9 13 30 -10z
m2192 14 c-3 -3 -12 -4 -19 -1 -8 3 -5 6 6 6 11 1 17 -2 13 -5z m63 -9 c0 -8
-4 -15 -9 -15 -13 0 -22 16 -14 24 11 11 23 6 23 -9z m-8300 -25 c0 -10 -7
-20 -15 -24 -11 -4 -15 1 -15 18 0 12 3 26 6 29 11 10 24 -3 24 -23z m1275 20
c3 -5 -1 -10 -10 -10 -9 0 -13 5 -10 10 3 6 8 10 10 10 2 0 7 -4 10 -10z m252
-2 c-4 -14 -36 -12 -51 3 -6 5 3 9 23 9 22 0 31 -4 28 -12z m668 2 c3 -5 -3
-10 -15 -10 -12 0 -18 5 -15 10 3 6 10 10 15 10 5 0 12 -4 15 -10z m395 6 c0
-11 -19 -15 -25 -6 -3 5 1 10 9 10 9 0 16 -2 16 -4z m1530 -8 c0 -4 -54 -8
-120 -8 -78 0 -120 4 -120 11 0 7 40 10 120 8 66 -1 120 -6 120 -11z m130 -4
c0 -2 -9 -4 -20 -4 -11 0 -20 4 -20 9 0 5 9 7 20 4 11 -3 20 -7 20 -9z m1070
6 c0 -5 -9 -10 -20 -10 -11 0 -20 5 -20 10 0 6 9 10 20 10 11 0 20 -4 20 -10z
m680 0 c0 -5 -2 -10 -4 -10 -2 0 -12 -3 -20 -6 -12 -5 -15 -2 -10 10 7 17 34
22 34 6z m1890 0 c0 -5 -5 -10 -11 -10 -5 0 -7 5 -4 10 3 6 8 10 11 10 2 0 4
-4 4 -10z m-7970 -14 c0 -8 -4 -17 -9 -20 -5 -3 -7 -15 -4 -26 4 -14 0 -20
-11 -20 -9 0 -17 5 -17 10 -1 6 -2 15 -3 20 0 6 -8 15 -16 21 -12 9 -10 10 8
6 15 -3 22 0 22 9 0 8 7 14 15 14 8 0 15 -6 15 -14z m2042 -28 c-13 -13 -26 8
-17 30 6 16 7 16 17 -1 7 -13 7 -22 0 -29z m366 24 c2 -7 -3 -12 -12 -12 -9 0
-16 7 -16 16 0 17 22 14 28 -4z m5372 14 c0 -3 -4 -8 -10 -11 -5 -3 -10 -1
-10 4 0 6 5 11 10 11 6 0 10 -2 10 -4z m664 -28 c-3 -5 -10 -6 -15 -3 -5 4 -9
1 -9 -4 0 -6 -8 -11 -17 -11 -17 1 -17 2 1 15 10 7 15 19 11 25 -5 7 0 7 13
-1 12 -7 18 -17 16 -21z m-8930 13 c3 -5 -3 -11 -13 -14 -14 -3 -18 -1 -14 9
6 16 19 18 27 5z m120 0 c11 -4 15 -10 10 -14 -14 -8 -54 3 -54 14 0 11 17 11
44 0z m276 -11 c0 -11 -7 -20 -15 -20 -8 0 -15 9 -15 20 0 11 7 20 15 20 8 0
15 -9 15 -20z m6330 10 c0 -5 -7 -10 -16 -10 -8 0 -12 5 -9 10 3 6 10 10 16
10 5 0 9 -4 9 -10z m1790 0 c0 -5 -7 -10 -15 -10 -8 0 -15 5 -15 10 0 6 7 10
15 10 8 0 15 -4 15 -10z m-8476 -8 c3 -5 -1 -9 -9 -9 -8 0 -15 4 -15 9 0 10
17 10 24 0z m5513 2 c-3 -3 -12 -4 -19 -1 -8 3 -5 6 6 6 11 1 17 -2 13 -5z
m228 -4 c3 -5 -1 -10 -9 -10 -9 0 -16 5 -16 10 0 6 4 10 9 10 6 0 13 -4 16
-10z m1465 0 c0 -5 -10 -10 -22 -10 -19 0 -20 2 -8 10 19 13 30 13 30 0z
m-6725 -10 c-3 -5 -10 -10 -16 -10 -5 0 -9 5 -9 10 0 6 7 10 16 10 8 0 12 -4
9 -10z m2499 1 c11 -4 15 -10 10 -13 -10 -6 -54 8 -54 17 0 7 21 5 44 -4z
m2604 -9 c3 -9 -3 -13 -14 -11 -11 2 -24 0 -31 -4 -14 -9 -27 9 -18 24 9 14
57 7 63 -9z m2399 -9 c15 -31 15 -30 -16 -35 -13 -1 -26 3 -28 10 -3 6 3 12
13 12 14 0 15 3 6 12 -16 16 -15 28 1 28 6 0 18 -12 24 -27z m141 15 c15 -15
15 -28 1 -28 -11 0 -39 24 -39 34 0 11 26 6 38 -6z m602 2 c0 -5 -7 -10 -15
-10 -8 0 -15 5 -15 10 0 6 7 10 15 10 8 0 15 -4 15 -10z m-6802 -8 c13 -9 13
-70 0 -78 -9 -6 -11 7 -8 48 1 21 -2 27 -13 22 -8 -3 -18 -1 -22 5 -7 13 24
15 43 3z m1667 -2 c-3 -5 -10 -10 -16 -10 -5 0 -9 5 -9 10 0 6 7 10 16 10 8 0
12 -4 9 -10z m2362 -8 c-9 -2 -15 -8 -12 -13 4 -5 1 -9 -4 -9 -14 0 -14 13 1
28 6 6 16 8 22 4 7 -4 4 -8 -7 -10z m1783 8 c0 -5 -2 -10 -4 -10 -3 0 -8 5
-11 10 -3 6 -1 10 4 10 6 0 11 -4 11 -10z m-7800 -20 c0 -11 -7 -20 -15 -20
-8 0 -15 9 -15 20 0 11 7 20 15 20 8 0 15 -9 15 -20z m679 -1 c-15 -9 -32 -2
-24 11 3 5 13 6 21 3 12 -4 13 -8 3 -14z m86 12 c3 -5 1 -12 -5 -16 -5 -3 -10
1 -10 9 0 18 6 21 15 7z m1637 -3 c-9 -9 -15 -9 -24 0 -9 9 -7 12 12 12 19 0
21 -3 12 -12z m113 2 c-3 -5 -12 -10 -20 -10 -8 0 -17 5 -20 10 -4 6 5 10 20
10 15 0 24 -4 20 -10z m400 -40 c2 -18 -23 -30 -26 -12 -1 4 -3 20 -5 36 -3
27 -2 28 13 13 9 -9 17 -26 18 -37z m61 43 c-11 -11 -48 -14 -41 -3 3 5 16 10
27 10 12 0 18 -3 14 -7z m1044 -3 c0 -5 -4 -10 -10 -10 -5 0 -10 5 -10 10 0 6
5 10 10 10 6 0 10 -4 10 -10z m100 0 c0 -5 -7 -10 -15 -10 -8 0 -15 5 -15 10
0 6 7 10 15 10 8 0 15 -4 15 -10z m4265 0 c3 -5 -3 -10 -14 -10 -11 0 -23 5
-26 10 -3 6 3 10 14 10 11 0 23 -4 26 -10z m-4835 -4 c0 -9 -30 -14 -35 -6 -4
6 3 10 14 10 12 0 21 -2 21 -4z m613 -14 c-1 -5 5 -9 15 -8 9 0 18 -7 20 -16
3 -14 -3 -18 -27 -18 -17 0 -32 5 -32 10 -1 6 -2 16 -3 23 -1 6 0 16 2 20 5
11 27 2 25 -11z m1785 6 c-5 -13 -65 -20 -83 -10 -11 7 28 19 63 21 15 1 22
-4 20 -11z m116 -9 c-3 -5 -10 -7 -15 -3 -5 3 -7 10 -3 15 3 5 10 7 15 3 5 -3
7 -10 3 -15z m1141 1 c-3 -5 -13 -6 -21 -3 -12 4 -13 8 -3 14 15 9 32 2 24
-11z m139 -1 c-3 -5 -10 -7 -15 -3 -5 3 -7 10 -3 15 3 5 10 7 15 3 5 -3 7 -10
3 -15z m548 -1 c-5 -5 -17 -6 -26 -2 -13 5 -14 9 -5 14 16 11 43 0 31 -12z
m-7802 2 c0 -5 -7 -7 -15 -4 -8 4 -15 8 -15 10 0 2 7 4 15 4 8 0 15 -4 15 -10z
m330 0 c0 -5 -7 -10 -15 -10 -8 0 -15 5 -15 10 0 6 7 10 15 10 8 0 15 -4 15
-10z m570 6 c0 -3 -4 -8 -10 -11 -5 -3 -10 -1 -10 4 0 6 5 11 10 11 6 0 10 -2
10 -4z m1456 -8 c8 -12 -22 -38 -43 -38 -11 0 -10 6 4 25 20 27 29 30 39 13z
m3132 0 c-3 -7 -13 -15 -24 -17 -16 -3 -17 -1 -5 13 16 19 34 21 29 4z m1808
-13 c-3 -9 -11 -13 -16 -10 -8 5 -7 11 1 21 14 18 24 11 15 -11z m451 19 c-3
-3 -12 -4 -19 -1 -8 3 -5 6 6 6 11 1 17 -2 13 -5z m356 -5 c7 0 1 -4 -11 -10
-26 -10 -46 -3 -36 12 3 6 13 8 21 5 8 -3 20 -6 26 -7z m-7612 -9 c5 0 9 -14
9 -31 0 -28 -3 -31 -22 -25 -13 3 -27 6 -31 6 -5 0 -5 5 -2 10 4 6 11 8 16 5
5 -4 9 -2 9 4 0 5 -4 13 -10 16 -16 10 -11 28 6 21 9 -3 20 -6 25 -6z m5749 0
c0 -5 -7 -10 -15 -10 -8 0 -15 5 -15 10 0 6 7 10 15 10 8 0 15 -4 15 -10z
m2585 -11 c-3 -5 0 -6 8 -3 8 3 18 1 22 -5 9 -16 -30 -14 -44 2 -6 8 -8 17 -5
20 10 9 25 -3 19 -14z m70 11 c3 -5 12 -7 20 -3 8 3 15 0 15 -7 0 -8 -10 -9
-32 -5 -40 9 -55 20 -28 22 11 1 22 -2 25 -7z m-6609 -28 c-9 -8 -57 8 -51 18
3 6 16 5 30 -2 14 -6 23 -13 21 -16z m-2206 10 c0 -5 -20 -9 -45 -9 -25 -1
-45 2 -45 6 0 4 20 9 45 9 25 1 45 -2 45 -6z m545 -2 c3 -5 -1 -10 -9 -10 -9
0 -16 5 -16 10 0 6 4 10 9 10 6 0 13 -4 16 -10z m1800 -4 c0 -11 -35 -18 -55
-10 -13 4 -13 6 0 15 18 11 55 8 55 -5z m5683 -3 c-2 -12 -11 -17 -23 -15 -28
5 -32 12 -15 22 24 15 42 11 38 -7z m501 3 c10 -12 9 -14 -5 -12 -10 2 -20 8
-22 14 -5 17 13 15 27 -2z m-8034 -6 c-3 -5 -10 -10 -16 -10 -5 0 -9 5 -9 10
0 6 7 10 16 10 8 0 12 -4 9 -10z m1395 0 c0 -5 -5 -10 -11 -10 -5 0 -7 5 -4
10 3 6 8 10 11 10 2 0 4 -4 4 -10z m767 4 c-3 -3 -12 -4 -19 -1 -8 3 -5 6 6 6
11 1 17 -2 13 -5z m166 -1 c-7 -2 -19 -2 -25 0 -7 3 -2 5 12 5 14 0 19 -2 13
-5z m57 -9 c0 -2 -7 -4 -15 -4 -8 0 -15 4 -15 10 0 5 7 7 15 4 8 -4 15 -8 15
-10z m3438 11 c-11 -11 -60 -16 -53 -5 3 5 18 10 32 10 15 0 24 -2 21 -5z
m1372 -5 c0 -5 -7 -10 -16 -10 -8 0 -12 5 -9 10 3 6 10 10 16 10 5 0 9 -4 9
-10z m65 0 c3 -5 -3 -10 -15 -10 -12 0 -18 5 -15 10 3 6 10 10 15 10 5 0 12
-4 15 -10z m131 -10 c0 -11 -6 -22 -13 -24 -8 -4 -13 3 -13 19 0 14 6 25 13
25 7 0 13 -9 13 -20z m-7601 0 c3 -5 -1 -10 -9 -10 -9 0 -16 5 -16 10 0 6 4
10 9 10 6 0 13 -4 16 -10z m1007 -2 c-9 -9 -15 -9 -24 0 -9 9 -7 12 12 12 19
0 21 -3 12 -12z m108 2 c0 -5 -7 -10 -15 -10 -8 0 -15 5 -15 10 0 6 7 10 15
10 8 0 15 -4 15 -10z m990 -10 c0 -21 -15 -27 -25 -10 -7 12 2 30 16 30 5 0 9
-9 9 -20z m2080 8 c0 -10 -17 -10 -24 0 -3 5 1 9 9 9 8 0 15 -4 15 -9z m1780
2 c0 -5 -9 -10 -20 -10 -11 0 -20 5 -20 10 0 6 9 10 20 10 11 0 20 -4 20 -10z
m233 -7 c15 -3 27 -9 27 -13 0 -5 -8 -7 -17 -5 -61 12 -73 17 -73 26 0 7 7 8
18 4 9 -3 29 -9 45 -12z m2543 0 c-11 -11 -65 -12 -72 -2 -3 5 14 9 37 9 23 0
39 -3 35 -7z m-6166 -13 c0 -5 -7 -10 -16 -10 -8 0 -12 5 -9 10 3 6 10 10 16
10 5 0 9 -4 9 -10z m1670 0 c0 -5 -4 -10 -10 -10 -5 0 -10 5 -10 10 0 6 5 10
10 10 6 0 10 -4 10 -10z m1500 0 c0 -5 -7 -10 -16 -10 -8 0 -12 5 -9 10 3 6
10 10 16 10 5 0 9 -4 9 -10z m1064 -2 c-3 -4 -21 -8 -40 -8 -20 0 -33 4 -29
10 3 5 21 9 40 8 19 -1 32 -5 29 -10z m136 2 c0 -5 -9 -10 -20 -10 -11 0 -20
5 -20 10 0 6 9 10 20 10 11 0 20 -4 20 -10z m65 0 c3 -5 -1 -10 -9 -10 -9 0
-16 5 -16 10 0 6 4 10 9 10 6 0 13 -4 16 -10z m1515 0 c0 -5 -4 -10 -10 -10
-5 0 -10 5 -10 10 0 6 5 10 10 10 6 0 10 -4 10 -10z"/>
<path d="M2655 230 c3 -5 8 -10 11 -10 2 0 4 5 4 10 0 6 -5 10 -11 10 -5 0 -7
-4 -4 -10z"/>
</g>
</svg>
